<svg id="Layer_1" data-name="Layer 1" xmlns="http://www.w3.org/2000/svg" viewBox="0 40 578.97 610.43">
  <path id="R" d="M680.63,728.64c0-28.9.25-57.8-.1-86.69a56.3,56.3,0,0,0-16-39.52,57.43,57.43,0,0,0-31.57-17.31,68.28,68.28,0,0,0-12.39-1q-72.31,0-144.63,0c-4.35,0-4.25.88-4.24-4.11q0-55.92-.05-111.86c0-2.38.57-2.93,3-2.83,6.34.26,12.7.12,19.06.12q61,0,122,0c9.14,0,18.28-.05,27-3.66,18.39-7.67,31.1-20.57,36.13-40.12,7.75-30.17-9.76-61-40.37-70.58a56.68,56.68,0,0,0-17-2.19q-72.57-.12-145.14-.05c-4.55,0-4.55,0-4.55-4.45V233.6c0-3.68,0-3.67,3.79-3.67,50.42,0,100.83-.17,151.25.11,15.77.09,31.27,3,46.42,7.59,31.5,9.57,58.19,26.69,80.41,50.91,18.59,20.26,31.19,43.84,38.9,70.11,3.5,11.93,5.16,24.17,6.32,36.55a158.31,158.31,0,0,1-.28,31.17,173.33,173.33,0,0,1-9.27,40,171,171,0,0,1-32.4,55.81c-1.81,2.08-1.65,3.37,0,5.31a175.71,175.71,0,0,1,41.27,94.41,287.23,287.23,0,0,1,1.54,31.17q-.06,82,.05,164c0,2.28-.58,2.72-2.78,2.72q-57.2-.06-114.39.09c-1.39,0-1.82-.5-1.82-1.73,0-1.69-.08-3.39-.08-5.08Q680.63,770.83,680.63,728.64Z" transform="translate(-231.45 -178.5)" fill="none" stroke-width="15px" stroke="black"/>
  <path id="L" d="M350.43,440q0,100.54,0,201.09c0,18.79,7,34.46,21.4,46.56A54.16,54.16,0,0,0,406,700.82c36.08.89,72.18.13,108.27.35q21.48.14,43,.15c1.75,0,2.3.43,2.29,2.25q-.09,53.52-.06,107c0,2.37-.14,4.75,0,7.11.11,1.9-.69,2.2-2.38,2.19q-31.51-.07-63,0c-24.91,0-49.82-.06-74.73,0-10.26,0-20.52-.27-30.71-1.22a158.51,158.51,0,0,1-42.29-10.39,190.19,190.19,0,0,1-34.16-17.15,173.06,173.06,0,0,1-38.82-34.33,165.28,165.28,0,0,1-18.59-26.47,178.94,178.94,0,0,1-19.05-49.67,194,194,0,0,1-4.17-40.77q0-195.49,0-391c0-5.59.07-11.19-.1-16.78,0-1.65.38-2,1.93-2,8.64,0,17.28,0,25.92,0q44.35,0,88.71,0c1.63,0,2.57,0,2.57,2.23q-.12,103.84-.06,207.7Z" transform="translate(-231.45 -178.5)"/>
</svg>